# xmcd
#
# Track frame offsets: 
#        150
#        19893
#        41779
#        64277
#        80325
#        117900
#        138588
#        166576
#        186267
#        205273
#        218535
#        237449
#        257918
#        276214
#        297031
#
# Disc length: 4282 seconds
#
# Revision: 0
# Processed by: cddbd v1.5.2PL0 Copyright (c) Steve Scherf et al.
# Submitted via: ExactAudioCopy v1.2
#
DISCID=df10b80f
DTITLE=Brother Tyrone - Mindbender
DYEAR=2008
DGENRE=Blues
TTITLE0=It's Hard to Explain
TTITLE1=I Never Found a Girl
TTITLE2=If You Ain't Cheating
TTITLE3=My Love Is Real
TTITLE4=When It's Gone, It's Gone
TTITLE5=New Indian Blues
TTITLE6=Nothing Takes the Place of You
TTITLE7=Old Friend
TTITLE8=Country Girl
TTITLE9=The Money's Gone
TTITLE10=Ain't No Use
TTITLE11=Just Because
TTITLE12=New Roll and Tumble
TTITLE13=Can't Stop This Heartache
TTITLE14=I Used to Love Her
EXTD=
EXTT0=
EXTT1=
EXTT2=
EXTT3=
EXTT4=
EXTT5=
EXTT6=
EXTT7=
EXTT8=
EXTT9=
EXTT10=
EXTT11=
EXTT12=
EXTT13=
EXTT14=
PLAYORDER=
